<?xml version="1.0" encoding="utf-8"?>
<!-- Generator: Adobe Illustrator 16.0.0, SVG Export Plug-In . SVG Version: 6.00 Build 0)  -->
<!DOCTYPE svg PUBLIC "-//W3C//DTD SVG 1.1//EN" "http://www.w3.org/Graphics/SVG/1.1/DTD/svg11.dtd">
<svg version="1.1" id="圖層_1" xmlns="http://www.w3.org/2000/svg" xmlns:xlink="http://www.w3.org/1999/xlink" x="0px" y="0px"
	 width="226px" height="61.001px" viewBox="0 0 226 61.001" enable-background="new 0 0 226 61.001" xml:space="preserve">
<path fill="#FFFFFF" d="M14.315,55.582c-0.246,1.393-1.483,2.107-3.711,2.153c-0.641,0-1.157-0.048-1.554-0.146
	c-0.393-0.1-0.584-0.178-0.575-0.235l0.228-1.29l0,0c-0.001,0.01,0.067,0.064,0.207,0.166c0.146,0.109,0.356,0.206,0.622,0.291
	c0.266,0.088,0.596,0.129,0.989,0.129c0.649,0,1.113-0.129,1.397-0.387c0.284-0.26,0.469-0.64,0.558-1.141l1.038-5.887h1.92
	L14.315,55.582L14.315,55.582z M18.664,54.966c-0.029,0.317,0.009,0.719,0.113,1.205c0.108,0.485,0.414,0.739,0.917,0.765
	c0.62,0,1.116-0.079,1.495-0.236c0.381-0.157,0.631-0.29,0.755-0.396l-0.441,1.048c-0.011,0.063-0.201,0.145-0.568,0.244
	c-0.369,0.104-0.825,0.154-1.369,0.154c-0.214,0-0.382-0.006-0.501-0.015c-0.868-0.063-1.466-0.317-1.796-0.759
	c-0.33-0.44-0.413-1.15-0.251-2.123c0.197-1.114,0.574-1.933,1.127-2.452c0.557-0.52,1.283-0.782,2.181-0.791
	c1.078,0,1.756,0.284,2.04,0.849c0.246,0.471,0.297,1.105,0.156,1.906c-0.026,0.15-0.052,0.277-0.079,0.38
	c-0.028,0.106-0.05,0.179-0.063,0.221H18.664L18.664,54.966z M20.356,52.371c-0.829,0.027-1.345,0.625-1.552,1.794h2.628
	C21.643,52.969,21.283,52.371,20.356,52.371L20.356,52.371z M27.77,57.681l0.112-0.634c-0.068,0.111-0.25,0.248-0.546,0.407
	c-0.301,0.163-0.771,0.245-1.417,0.245c-0.549-0.021-0.983-0.163-1.302-0.426c-0.319-0.264-0.434-0.677-0.343-1.242
	c0.107-0.606,0.405-1.063,0.894-1.367c0.489-0.306,1.174-0.49,2.055-0.553c0.408-0.033,0.734-0.137,0.981-0.309
	c0.248-0.172,0.391-0.365,0.428-0.58c0.039-0.221-0.027-0.408-0.2-0.562c-0.171-0.157-0.427-0.235-0.765-0.235
	c-0.701,0-1.268,0.13-1.699,0.387c-0.436,0.26-0.727,0.475-0.878,0.648l0.465-1.198c0.004-0.021,0.105-0.085,0.309-0.19
	c0.204-0.109,0.478-0.209,0.826-0.299c0.346-0.094,0.75-0.143,1.207-0.145c0.933,0,1.579,0.156,1.937,0.474
	c0.361,0.317,0.496,0.733,0.405,1.247l-0.764,4.331H27.77L27.77,57.681z M27.105,56.738c0.58-0.15,0.9-0.393,0.958-0.725
	l0.243-1.377c-0.005,0.009-0.033,0.051-0.086,0.127c-0.049,0.075-0.15,0.147-0.299,0.223c-0.148,0.072-0.363,0.127-0.647,0.16
	c-0.482,0.064-0.863,0.17-1.137,0.314c-0.273,0.148-0.441,0.396-0.503,0.749c-0.033,0.411,0.257,0.616,0.876,0.616
	C26.695,56.826,26.894,56.796,27.105,56.738L27.105,56.738z M37.954,53.039l-0.819,4.642h-1.269l0.78-4.421
	c0.09-0.508-0.252-0.762-1.025-0.762c-0.386,0.045-0.675,0.16-0.875,0.351c-0.197,0.193-0.321,0.347-0.375,0.465l-0.77,4.367h-1.704
	l1.064-6.034h1.703l-0.086,0.489c0.026-0.015,0.114-0.066,0.27-0.16c0.152-0.091,0.363-0.175,0.627-0.251
	c0.267-0.075,0.563-0.114,0.899-0.114c0.628,0,1.065,0.145,1.31,0.432C37.931,52.329,38.021,52.661,37.954,53.039L37.954,53.039z
	 M48.309,57.209c-0.011,0.061-0.246,0.16-0.707,0.306c-0.459,0.142-1.005,0.221-1.636,0.235c-1.461,0-2.417-0.371-2.866-1.111
	c-0.449-0.742-0.535-1.899-0.258-3.471c0.18-0.848,0.435-1.558,0.77-2.138c0.331-0.577,0.791-1.026,1.376-1.347
	c0.585-0.323,1.325-0.49,2.221-0.502c0.535,0,1.005,0.039,1.419,0.121c0.412,0.082,0.701,0.15,0.875,0.209l0.11,1.428
	c-0.138-0.109-0.392-0.244-0.768-0.404c-0.376-0.163-0.848-0.245-1.419-0.245c-0.785,0-1.359,0.275-1.721,0.821
	c-0.366,0.55-0.62,1.236-0.765,2.057c-0.112,0.635-0.174,1.193-0.187,1.677c-0.013,0.483,0.074,0.897,0.258,1.244
	c0.187,0.345,0.513,0.532,0.982,0.562c0.559,0,1.034-0.054,1.423-0.156c0.39-0.105,0.698-0.224,0.92-0.356
	c0.205-0.118,0.308-0.185,0.31-0.196c0,0,0,0-0.003,0L48.309,57.209L48.309,57.209z M52.603,55.978
	c-0.044,0.251,0.013,0.459,0.167,0.625c0.155,0.163,0.367,0.247,0.639,0.247c0.449-0.012,0.788-0.117,1.017-0.319
	c0.226-0.199,0.37-0.365,0.432-0.499l0.773-4.385H56.9l-1.064,6.034h-1.269l0.099-0.562c-0.132,0.097-0.403,0.217-0.813,0.362
	c-0.409,0.146-0.95,0.218-1.624,0.218c-0.499-0.019-0.87-0.17-1.113-0.457c-0.242-0.286-0.319-0.688-0.227-1.211l0.773-4.385h1.704
	L52.603,55.978L52.603,55.978z M58.388,57.681l1.489-8.444h1.667l-1.489,8.444H58.388L58.388,57.681z M66.034,52.408l-0.618,3.5
	c-0.061,0.348-0.002,0.595,0.18,0.742c0.125,0.118,0.395,0.176,0.803,0.176l-0.151,0.854c-0.034,0.003-0.097,0.007-0.191,0.009
	c-0.095,0.006-0.201,0.01-0.319,0.01c-0.776,0-1.32-0.133-1.633-0.398c-0.375-0.291-0.5-0.779-0.378-1.469l0.604-3.424h-1.142
	l0.134-0.762h1.142l0.425-2.41h1.704l-0.425,2.41h1.145l-0.134,0.762H66.034L66.034,52.408z M70.354,55.978
	c-0.044,0.251,0.013,0.459,0.167,0.625c0.156,0.163,0.367,0.247,0.639,0.247c0.449-0.012,0.788-0.117,1.017-0.319
	c0.226-0.199,0.37-0.365,0.433-0.499l0.773-4.385h1.269l-1.064,6.034h-1.269l0.099-0.562c-0.132,0.097-0.404,0.217-0.813,0.362
	s-0.95,0.218-1.624,0.218c-0.498-0.019-0.87-0.17-1.112-0.457c-0.243-0.286-0.32-0.688-0.228-1.211l0.773-4.385h1.704L70.354,55.978
	L70.354,55.978z M76.103,57.681l1.064-6.034h1.704l-0.131,0.742c0.007-0.006,0.048-0.048,0.125-0.126
	c0.077-0.079,0.188-0.16,0.33-0.245c0.142-0.084,0.329-0.166,0.56-0.244c0.25-0.097,0.554-0.145,0.913-0.145
	c0.278,0,0.451,0.012,0.516,0.035l-0.005,0.87c-0.2-0.048-0.388-0.075-0.566-0.075c-0.393,0-0.732,0.075-1.018,0.224
	c-0.315,0.145-0.576,0.341-0.774,0.592c-0.202,0.251-0.32,0.479-0.358,0.691l-0.655,3.715H76.103L76.103,57.681z M86.044,57.681
	l0.112-0.634c-0.068,0.111-0.249,0.248-0.546,0.407c-0.301,0.163-0.771,0.245-1.417,0.245c-0.549-0.021-0.983-0.163-1.302-0.426
	c-0.319-0.264-0.434-0.677-0.343-1.242c0.107-0.606,0.405-1.063,0.894-1.367c0.488-0.306,1.173-0.49,2.054-0.553
	c0.408-0.033,0.734-0.137,0.981-0.309c0.248-0.172,0.391-0.365,0.429-0.58c0.039-0.221-0.028-0.408-0.2-0.562
	c-0.171-0.157-0.426-0.235-0.765-0.235c-0.701,0-1.267,0.13-1.699,0.387c-0.436,0.26-0.727,0.475-0.878,0.648l0.465-1.198
	c0.003-0.021,0.105-0.085,0.308-0.19c0.203-0.109,0.478-0.209,0.826-0.299c0.346-0.094,0.75-0.143,1.207-0.145
	c0.933,0,1.579,0.156,1.937,0.474c0.361,0.317,0.496,0.733,0.405,1.247l-0.764,4.331H86.044L86.044,57.681z M85.38,56.738
	c0.58-0.15,0.9-0.393,0.958-0.725l0.243-1.377c-0.005,0.009-0.033,0.051-0.086,0.127c-0.049,0.075-0.15,0.147-0.299,0.223
	c-0.148,0.072-0.363,0.127-0.647,0.16c-0.482,0.064-0.863,0.17-1.137,0.314c-0.273,0.148-0.441,0.396-0.503,0.749
	c-0.033,0.411,0.257,0.616,0.876,0.616C84.969,56.826,85.167,56.796,85.38,56.738L85.38,56.738z M90.209,57.681l1.489-8.444h1.667
	l-1.489,8.444H90.209L90.209,57.681z M105.718,57.681h-2.353l-0.564-0.725c-0.027,0.019-0.101,0.075-0.222,0.163
	c-0.118,0.088-0.292,0.185-0.522,0.293c-0.23,0.105-0.528,0.199-0.892,0.277c-0.367,0.079-0.788,0.118-1.265,0.118
	c-0.266,0-0.471-0.003-0.617-0.015c-1.49-0.112-2.095-0.967-1.814-2.559c0.092-0.471,0.375-0.909,0.847-1.311
	c0.47-0.404,0.938-0.716,1.397-0.937c0.002-0.012-0.042-0.091-0.134-0.235c-0.089-0.145-0.167-0.266-0.229-0.363
	c-0.271-0.446-0.35-0.993-0.238-1.63c0.07-0.294,0.239-0.58,0.508-0.861c0.267-0.277,0.59-0.504,0.962-0.677
	c0.375-0.168,0.746-0.256,1.112-0.256c0.716,0,1.28,0.153,1.698,0.459c0.415,0.305,0.57,0.742,0.468,1.316
	c-0.098,0.559-0.382,1.003-0.854,1.335c-0.469,0.329-0.852,0.55-1.146,0.658l1.897,2.517c0.302-0.257,0.513-0.532,0.632-0.831
	c0.071-0.179,0.118-0.341,0.145-0.492c0.033-0.185,0.035-0.372,0.005-0.562h0.746c0.004,0.32-0.005,0.543-0.028,0.674
	c-0.038,0.214-0.105,0.426-0.205,0.631c-0.146,0.277-0.317,0.528-0.519,0.748c-0.199,0.221-0.32,0.342-0.365,0.36L105.718,57.681
	L105.718,57.681z M101.429,52.097c0.103,0,0.363-0.14,0.777-0.414c0.414-0.274,0.652-0.599,0.716-0.964
	c0.054-0.305-0.015-0.546-0.209-0.728c-0.198-0.181-0.496-0.274-0.898-0.284c-0.224,0-0.434,0.115-0.625,0.342
	c-0.194,0.227-0.309,0.449-0.348,0.67c-0.047,0.266,0.019,0.544,0.197,0.837L101.429,52.097L101.429,52.097z M100.113,53.619
	c-0.026,0.012-0.101,0.061-0.221,0.141c-0.123,0.082-0.24,0.197-0.351,0.346c-0.114,0.147-0.189,0.334-0.229,0.564
	c-0.081,0.459,0.027,0.909,0.32,1.35c0.297,0.441,0.714,0.716,1.253,0.828c0.284,0,0.519-0.033,0.704-0.104
	c0.181-0.069,0.396-0.175,0.639-0.316L100.113,53.619L100.113,53.619z M116.695,57.209c-0.011,0.061-0.246,0.16-0.706,0.306
	c-0.46,0.142-1.005,0.221-1.637,0.235c-1.462,0-2.417-0.371-2.866-1.111c-0.449-0.742-0.535-1.899-0.258-3.471
	c0.18-0.848,0.435-1.558,0.77-2.138c0.331-0.577,0.791-1.026,1.376-1.347c0.585-0.323,1.325-0.49,2.221-0.502
	c0.535,0,1.005,0.039,1.419,0.121c0.412,0.082,0.701,0.15,0.875,0.209l0.11,1.428c-0.138-0.109-0.392-0.244-0.768-0.404
	c-0.376-0.163-0.848-0.245-1.419-0.245c-0.785,0-1.359,0.275-1.721,0.821c-0.366,0.55-0.62,1.236-0.764,2.057
	c-0.112,0.635-0.175,1.193-0.187,1.677c-0.013,0.483,0.074,0.897,0.258,1.244c0.187,0.345,0.513,0.532,0.982,0.562
	c0.559,0,1.034-0.054,1.423-0.156c0.391-0.105,0.698-0.224,0.921-0.356c0.205-0.118,0.307-0.185,0.31-0.196c0,0,0,0-0.003,0
	L116.695,57.209L116.695,57.209z M118.985,57.681l1.064-6.034h1.704l-0.131,0.742c0.007-0.006,0.048-0.048,0.125-0.126
	c0.077-0.079,0.188-0.16,0.33-0.245c0.142-0.084,0.329-0.166,0.56-0.244c0.25-0.097,0.554-0.145,0.913-0.145
	c0.278,0,0.451,0.012,0.516,0.035l-0.005,0.87c-0.2-0.048-0.388-0.075-0.566-0.075c-0.393,0-0.732,0.075-1.018,0.224
	c-0.315,0.145-0.577,0.341-0.774,0.592c-0.202,0.251-0.32,0.479-0.357,0.691l-0.655,3.715H118.985L118.985,57.681z M127.322,54.966
	c-0.029,0.317,0.009,0.719,0.114,1.205c0.107,0.485,0.413,0.739,0.916,0.765c0.62,0,1.117-0.079,1.495-0.236
	c0.381-0.157,0.631-0.29,0.755-0.396l-0.442,1.048c-0.011,0.063-0.201,0.145-0.568,0.244c-0.369,0.104-0.825,0.154-1.368,0.154
	c-0.214,0-0.382-0.006-0.501-0.015c-0.868-0.063-1.466-0.317-1.796-0.759c-0.33-0.44-0.414-1.15-0.251-2.123
	c0.196-1.114,0.573-1.933,1.127-2.452c0.557-0.52,1.283-0.782,2.181-0.791c1.079,0,1.756,0.284,2.04,0.849
	c0.246,0.471,0.298,1.105,0.156,1.906c-0.026,0.15-0.052,0.277-0.079,0.38c-0.027,0.106-0.049,0.179-0.063,0.221H127.322
	L127.322,54.966z M129.015,52.371c-0.829,0.027-1.345,0.625-1.551,1.794h2.627C130.302,52.969,129.942,52.371,129.015,52.371
	L129.015,52.371z M136.429,57.681l0.112-0.634c-0.068,0.111-0.25,0.248-0.546,0.407c-0.3,0.163-0.771,0.245-1.417,0.245
	c-0.549-0.021-0.983-0.163-1.302-0.426c-0.319-0.264-0.434-0.677-0.343-1.242c0.107-0.606,0.405-1.063,0.894-1.367
	c0.489-0.306,1.173-0.49,2.055-0.553c0.407-0.033,0.733-0.137,0.981-0.309c0.248-0.172,0.39-0.365,0.428-0.58
	c0.039-0.221-0.028-0.408-0.2-0.562c-0.172-0.157-0.427-0.235-0.765-0.235c-0.701,0-1.267,0.13-1.699,0.387
	c-0.435,0.26-0.727,0.475-0.878,0.648l0.465-1.198c0.004-0.021,0.105-0.085,0.309-0.19c0.203-0.109,0.478-0.209,0.826-0.299
	c0.346-0.094,0.75-0.143,1.206-0.145c0.933,0,1.58,0.156,1.937,0.474c0.361,0.317,0.496,0.733,0.405,1.247l-0.764,4.331H136.429
	L136.429,57.681z M135.765,56.738c0.58-0.15,0.9-0.393,0.958-0.725l0.243-1.377c-0.004,0.009-0.033,0.051-0.085,0.127
	c-0.05,0.075-0.15,0.147-0.299,0.223c-0.149,0.072-0.364,0.127-0.647,0.16c-0.482,0.064-0.864,0.17-1.137,0.314
	c-0.274,0.148-0.441,0.396-0.503,0.749c-0.033,0.411,0.257,0.616,0.876,0.616C135.354,56.826,135.552,56.796,135.765,56.738
	L135.765,56.738z M144.021,52.408l-0.617,3.5c-0.062,0.348-0.002,0.595,0.18,0.742c0.124,0.118,0.396,0.176,0.803,0.176l-0.15,0.854
	c-0.034,0.003-0.098,0.007-0.192,0.009c-0.095,0.006-0.2,0.01-0.318,0.01c-0.776,0-1.32-0.133-1.633-0.398
	c-0.375-0.291-0.5-0.779-0.379-1.469l0.604-3.424h-1.142l0.134-0.762h1.142l0.425-2.41h1.704l-0.425,2.41h1.145l-0.135,0.762
	H144.021L144.021,52.408z M146.355,57.681l1.064-6.034h1.686l-1.064,6.034H146.355L146.355,57.681z M148.702,49.219
	c0.3,0,0.519,0.093,0.654,0.283c0.136,0.188,0.181,0.414,0.135,0.677c-0.048,0.269-0.173,0.498-0.379,0.688
	c-0.206,0.193-0.464,0.287-0.77,0.287c-0.296,0-0.511-0.098-0.652-0.29c-0.142-0.19-0.187-0.414-0.142-0.667
	c0.045-0.26,0.171-0.49,0.381-0.686C148.138,49.314,148.394,49.219,148.702,49.219L148.702,49.219z M152.813,57.935l-1.683-6.288
	h1.649l0.875,3.244l2.006-3.244h1.03L152.813,57.935L152.813,57.935z M159.674,54.966c-0.028,0.317,0.01,0.719,0.114,1.205
	c0.107,0.485,0.413,0.739,0.916,0.765c0.619,0,1.116-0.079,1.494-0.236c0.382-0.157,0.631-0.29,0.756-0.396l-0.441,1.048
	c-0.012,0.063-0.201,0.145-0.568,0.244c-0.369,0.104-0.825,0.154-1.369,0.154c-0.214,0-0.382-0.006-0.501-0.015
	c-0.868-0.063-1.467-0.317-1.797-0.759c-0.33-0.44-0.413-1.15-0.251-2.123c0.197-1.114,0.574-1.933,1.128-2.452
	c0.557-0.52,1.282-0.782,2.181-0.791c1.078,0,1.756,0.284,2.04,0.849c0.246,0.471,0.298,1.105,0.156,1.906
	c-0.026,0.15-0.052,0.277-0.079,0.38c-0.027,0.106-0.05,0.179-0.063,0.221H159.674L159.674,54.966z M161.368,52.371
	c-0.829,0.027-1.346,0.625-1.552,1.794h2.628C162.655,52.969,162.294,52.371,161.368,52.371L161.368,52.371z M173.888,57.209
	c-0.011,0.061-0.246,0.16-0.706,0.306c-0.46,0.142-1.006,0.221-1.637,0.235c-1.462,0-2.417-0.371-2.866-1.111
	c-0.449-0.742-0.535-1.899-0.258-3.471c0.18-0.848,0.435-1.558,0.77-2.138c0.331-0.577,0.791-1.026,1.376-1.347
	c0.586-0.323,1.324-0.49,2.221-0.502c0.534,0,1.005,0.039,1.42,0.121c0.411,0.082,0.701,0.15,0.875,0.209l0.11,1.428
	c-0.138-0.109-0.392-0.244-0.769-0.404c-0.376-0.163-0.848-0.245-1.418-0.245c-0.785,0-1.359,0.275-1.722,0.821
	c-0.366,0.55-0.62,1.236-0.765,2.057c-0.111,0.635-0.174,1.193-0.187,1.677s0.074,0.897,0.258,1.244
	c0.187,0.345,0.514,0.532,0.982,0.562c0.559,0,1.033-0.054,1.423-0.156c0.39-0.105,0.697-0.224,0.921-0.356
	c0.204-0.118,0.307-0.185,0.31-0.196c0,0,0,0-0.004,0L173.888,57.209L173.888,57.209z M179.988,51.61
	c0.701,0,1.242,0.114,1.622,0.341s0.623,0.563,0.726,1.009c0.105,0.444,0.097,1.009-0.024,1.694
	c-0.188,1.069-0.553,1.854-1.094,2.35c-0.544,0.499-1.327,0.746-2.354,0.746c-0.971-0.009-1.643-0.256-2.019-0.748
	c-0.375-0.49-0.468-1.266-0.28-2.329C176.942,52.631,178.083,51.61,179.988,51.61L179.988,51.61z M178.252,54.654
	c-0.071,0.523-0.111,0.918-0.119,1.188c-0.008,0.269,0.058,0.514,0.19,0.734c0.138,0.217,0.384,0.325,0.749,0.325
	c0.505,0,0.858-0.192,1.06-0.577c0.201-0.386,0.363-0.93,0.488-1.637c0.122-0.691,0.152-1.24,0.087-1.643
	c-0.063-0.401-0.347-0.604-0.848-0.604c-0.522,0.016-0.891,0.218-1.106,0.604C178.541,53.432,178.374,53.969,178.252,54.654
	L178.252,54.654z M186.144,57.681h-1.921l0.307-1.739h1.921L186.144,57.681L186.144,57.681z M189.126,55.941h1.957l-0.307,1.739
	c-0.122,0.692-0.398,1.232-0.828,1.616c-0.267,0.244-0.556,0.441-0.868,0.589c-0.317,0.151-0.549,0.247-0.702,0.296l0.183-1.033
	c0.064-0.023,0.16-0.072,0.29-0.139s0.26-0.139,0.39-0.224c0.189-0.133,0.314-0.362,0.372-0.688l0.073-0.417h-0.866L189.126,55.941
	L189.126,55.941z M198.284,56.627h4.096l-0.186,1.054h-6.017l1.488-8.444h1.922L198.284,56.627L198.284,56.627z M207.755,52.408
	l-0.617,3.5c-0.061,0.348-0.002,0.595,0.181,0.742c0.124,0.118,0.395,0.176,0.803,0.176l-0.151,0.854
	c-0.033,0.003-0.098,0.007-0.191,0.009c-0.095,0.006-0.201,0.01-0.318,0.01c-0.776,0-1.321-0.133-1.634-0.398
	c-0.374-0.291-0.5-0.779-0.378-1.469l0.604-3.424h-1.142l0.134-0.762h1.143l0.425-2.41h1.703l-0.425,2.41h1.145l-0.134,0.762
	H207.755L207.755,52.408z M216.964,49.236l-1.489,8.444h-1.685l0.063-0.362c-0.075,0.063-0.229,0.148-0.47,0.248
	c-0.238,0.1-0.559,0.15-0.963,0.15c-0.464-0.006-0.866-0.088-1.208-0.241c-0.344-0.154-0.598-0.466-0.756-0.937
	c-0.162-0.469-0.164-1.145-0.008-2.029c0.223-1.178,0.583-1.954,1.085-2.332c0.505-0.377,1.091-0.567,1.764-0.567
	c0.635,0,1.137,0.103,1.508,0.306l0.473-2.68H216.964L216.964,49.236z M214.017,56.395l0.646-3.661
	c0.006-0.032-0.074-0.093-0.243-0.181c-0.169-0.085-0.414-0.139-0.732-0.164c-0.598,0-1.028,0.182-1.298,0.541
	c-0.266,0.363-0.46,0.883-0.58,1.562c-0.095,0.541-0.125,0.985-0.09,1.332c0.032,0.351,0.148,0.616,0.344,0.794
	c0.198,0.179,0.484,0.266,0.864,0.266c0.282-0.023,0.535-0.102,0.751-0.232C213.897,56.524,214.009,56.437,214.017,56.395
	L214.017,56.395z M220.125,57.681h-1.921l0.307-1.739h1.921L220.125,57.681L220.125,57.681z"/>
<path fill="#FFFFFF" d="M204.106,39.961l1.524-8.642c0.042-0.239-0.072-0.368-0.346-0.393H192.25c-0.23,0-0.378,0.129-0.447,0.393
	l-1.524,8.642c-0.051,0.291,0.049,0.432,0.302,0.432h8.624l0.502-2.844h-6.157c-0.071,0-0.098-0.05-0.081-0.143l0.621-3.524
	c0.014-0.075,0.055-0.112,0.126-0.112h8.108c0.089,0,0.13,0.037,0.116,0.112c-0.382,2.17-0.767,4.341-1.149,6.511h2.326
	C203.893,40.393,204.055,40.252,204.106,39.961L204.106,39.961z M206.886,17.682h-14.897c-0.645,0-1.03,0.337-1.148,1.006
	c-1.237,7.025-1.913,14.479-6.012,20.55l2.432,1.332c2.366-3.189,3.773-7.855,4.487-11.696h13.13c0.693,0,1.105-0.362,1.231-1.08
	l1.6-9.068C207.827,18.057,207.55,17.706,206.886,17.682L206.886,17.682z M156.502,14.26c0.16,5.825,1.468,11.641,5.085,16.34
	c-4.013,2.833-8.457,5.138-13.333,6.906l-0.633,3.586c6.38-2.514,11.662-5.289,15.839-8.329c3.478,3.452,7.835,6.144,13.063,8.06
	l0.649-3.558c-11.418-4.16-17.04-10.849-17.518-23.005h14.661c-2.345,5.663-5.373,10.126-9.078,13.398l2.111,1.956
	c4.015-3.744,7.444-8.862,10.291-15.354h5.265l0.577-3.274h-14.484l0.71-4.029h-3.152l-0.71,4.029h-11.911l-3.202,3.274H156.502
	L156.502,14.26z M135.087,39.711l2.577-14.615c0.051-0.288-0.072-0.43-0.373-0.43h-19.756l-4.392,4.49l-1.861,10.555
	c-0.056,0.313,0.053,0.467,0.331,0.467h22.942C134.858,40.178,135.033,40.023,135.087,39.711L135.087,39.711z M135.313,19.771
	l1.966-4.073h4.681l0.526-2.985h-29.009l-0.526,2.985h4.635l0.737,4.073h-7.752l-0.526,2.985h32.469l0.526-2.985H135.313
	L135.313,19.771z M99.628,39.096l5.179-29.37c0.093-0.526-0.138-0.803-0.688-0.829H93.17c-0.508,0-0.823,0.277-0.945,0.829
	l-5.179,29.37c-0.102,0.578,0.114,0.866,0.646,0.866h6.68l0.552-3.132H90.6c-0.088,0-0.125-0.062-0.104-0.18l4.316-24.479
	c0.017-0.093,0.073-0.142,0.161-0.142h6.24c0.088,0,0.139,0.049,0.146,0.142L97.43,34.453l0,0l-0.971,5.509h2.182
	C99.196,39.962,99.526,39.674,99.628,39.096L99.628,39.096z M219.221,7.097l-5.116,29.014c-0.089,0.504-0.257,0.854-0.497,1.044
	c-0.639,0.503-2.367,0.276-5.18-0.683l-0.712,3.238c3.417,1.081,5.783,1.209,7.104,0.393c1.168-0.719,1.887-1.775,2.154-3.164
	l5.263-29.842H219.221L219.221,7.097z M212.524,9.689l-3.915,22.208h3.017l3.915-22.208H212.524L212.524,9.689z M194.91,13.29
	l-0.476,2.697h11.261l0.476-2.697H194.91L194.91,13.29z M117.835,10.802h21.243l0.526-2.985h-18.85L117.835,10.802L117.835,10.802z
	 M79.805,29.525c1.494,3.668,2.684,6.984,3.571,9.934l3.001-1.689c-1.49-4.128-3.174-8.127-5.054-11.991
	c0.065-0.239,0.139-0.455,0.22-0.646h6.683l0.552-3.131h-6.411c0.511-2.891,1.02-5.783,1.53-8.674h5.684l0.552-3.133H80.7
	l-0.696-4.001l-7.424,10.7l0.37,2.121l5.167-5.687h2.799c-0.51,2.891-1.02,5.783-1.53,8.674H74l-3.063,3.131h7.619
	c-1.645,4.444-4.103,8.625-7.951,11.458l-0.696,3.945l0.004,0.004C74.382,37.732,77.681,34.06,79.805,29.525L79.805,29.525z
	 M189.487,12.044l10.65-4.919l-0.638,3.616l-9.077,4.192L189.487,12.044L189.487,12.044z M202.258,6.92l8.971,3.993l-1.757,2.991
	l-7.83-3.486L202.258,6.92L202.258,6.92z M132.161,19.771h-10.615l-0.737-4.073h13.282L132.161,19.771L132.161,19.771z
	 M132.548,37.014c-0.017,0.092-0.075,0.154-0.168,0.178h-17.53c-0.089-0.023-0.115-0.086-0.074-0.178l0.56-3.176h15.691l0.527-2.986
	h-15.691l0.539-3.057c-0.007-0.094,0.038-0.142,0.131-0.142h17.531c0.089,0,0.128,0.048,0.112,0.142l-0.285,1.616h0.004
	C133.445,31.947,132.994,34.48,132.548,37.014L132.548,37.014z M203.707,25.889c-0.051,0.289-0.211,0.429-0.49,0.429h-10.982
	l0.322-1.831h9.313l0.426-2.414h-9.313l0.248-1.407c0.051-0.289,0.212-0.43,0.49-0.43h10.533c0.302,0,0.425,0.141,0.374,0.43
	l-0.011,0.063h0.001C204.315,22.449,204.01,24.172,203.707,25.889L203.707,25.889z"/>
<polygon fill="#FFFFFF" points="21.516,2.464 6.318,16.917 23.555,5.892 "/>
<polygon fill="#FFFFFF" points="25.932,4.372 23.555,5.892 23.768,6.25 25.798,4.952 40.894,29.696 20.081,43.063 4.73,18.427 
	6.318,16.917 4.159,18.298 19.951,43.641 41.461,29.826 "/>
<polygon fill="#FFFFFF" points="23.768,6.25 23.555,5.892 6.318,16.917 4.73,18.427 "/>
<polygon fill="#FFFFFF" points="25.665,5.532 40.327,29.565 20.211,42.484 19.964,42.087 19.757,42.303 4.73,18.427 20.081,43.063 
	40.894,29.696 25.798,4.952 23.768,6.25 23.981,6.608 "/>
<polygon fill="#FFFFFF" points="19.757,42.303 19.964,42.087 5.302,18.556 23.981,6.608 23.768,6.25 4.73,18.427 "/>
<path fill-rule="evenodd" clip-rule="evenodd" fill="#FFFFFF" d="M36.827,37.15c0,0.479-0.03,0.854-0.088,1.121
	c-0.06,0.268-0.212,0.559-0.464,0.873c-0.249,0.316-0.555,0.555-0.917,0.715c-0.359,0.158-0.754,0.239-1.183,0.239
	c-0.73-0.001-1.35-0.241-1.863-0.72c-0.512-0.48-0.769-1.074-0.768-1.783l0.99,0.001c0,0.46,0.169,0.833,0.504,1.12
	c0.337,0.288,0.75,0.432,1.24,0.432c0.335,0,0.631-0.083,0.884-0.252c0.254-0.17,0.422-0.373,0.506-0.614l0.147-0.674
	c0.013-0.209,0.021-0.461,0.021-0.753l0.005-6.806l0.99,0L36.827,37.15L36.827,37.15z"/>
<path fill-rule="evenodd" clip-rule="evenodd" fill="#FFFFFF" d="M45.727,36.646l-6.631-0.006c-0.001,0.674,0.284,1.26,0.854,1.762
	c0.57,0.502,1.203,0.752,1.9,0.752c0.552,0.001,1.073-0.141,1.562-0.429c0.493-0.286,0.848-0.673,1.071-1.158l1.028,0.001
	c-0.26,0.734-0.723,1.342-1.391,1.82c-0.668,0.478-1.395,0.717-2.181,0.717c-1.06-0.001-1.962-0.371-2.71-1.111
	c-0.748-0.738-1.121-1.642-1.12-2.709c0.001-1.058,0.371-1.961,1.109-2.708c0.741-0.746,1.642-1.12,2.702-1.119
	c1.114,0.001,2.027,0.385,2.738,1.152C45.373,34.379,45.728,35.391,45.727,36.646L45.727,36.646z M44.739,35.75
	c-0.125-0.654-0.457-1.209-0.996-1.66c-0.539-0.454-1.14-0.68-1.81-0.681c-0.693,0-1.309,0.218-1.845,0.656
	c-0.535,0.439-0.865,0.999-0.991,1.68L44.739,35.75L44.739,35.75z"/>
<path fill-rule="evenodd" clip-rule="evenodd" fill="#FFFFFF" d="M54.363,39.955l-0.949-0.001l0.001-1.376
	c-0.268,0.494-0.658,0.873-1.171,1.139c-0.513,0.264-1.07,0.396-1.678,0.396c-0.57-0.001-1.136-0.131-1.695-0.39
	c-0.563-0.259-0.997-0.561-1.302-0.909c-0.308-0.347-0.541-0.741-0.703-1.18c-0.16-0.44-0.238-0.906-0.237-1.396
	c0-0.488,0.09-0.947,0.273-1.379c0.184-0.432,0.451-0.832,0.805-1.201c0.352-0.369,0.762-0.66,1.23-0.874
	c0.466-0.212,1.003-0.319,1.61-0.319c0.614,0,1.177,0.133,1.689,0.396c0.514,0.264,0.897,0.654,1.156,1.17l0.027-1.403l0.95,0.001
	l-0.006,6.842L54.363,39.955L54.363,39.955z M53.417,36.332c0-0.811-0.271-1.499-0.82-2.066c-0.547-0.565-1.232-0.848-2.051-0.849
	c-0.801,0-1.489,0.281-2.065,0.846c-0.577,0.565-0.865,1.249-0.866,2.05c0,0.795,0.294,1.468,0.883,2.021
	c0.585,0.553,1.276,0.829,2.069,0.829c0.759,0.001,1.421-0.279,1.992-0.84C53.13,37.763,53.416,37.098,53.417,36.332L53.417,36.332z
	"/>
<path fill-rule="evenodd" clip-rule="evenodd" fill="#FFFFFF" d="M62.226,39.961h-0.989l0.003-3.857
	c0-0.482-0.036-0.844-0.106-1.084c-0.071-0.241-0.254-0.568-0.549-0.979c-0.295-0.411-0.847-0.617-1.661-0.617
	c-0.358,0-0.696,0.078-1.013,0.233c-0.316,0.156-0.571,0.361-0.756,0.615c-0.188,0.255-0.307,0.525-0.352,0.811
	s-0.066,0.625-0.066,1.018l-0.003,3.857l-0.989-0.001l0.006-7.324l0.934,0l-0.001,1.068c0.571-0.818,1.33-1.229,2.275-1.228
	c0.507,0,0.984,0.106,1.429,0.316c0.444,0.21,0.815,0.494,1.108,0.856c0.293,0.362,0.488,0.739,0.588,1.13
	c0.097,0.393,0.146,0.839,0.145,1.337L62.226,39.961L62.226,39.961z"/>
<path fill-rule="evenodd" clip-rule="evenodd" fill="#FFFFFF" d="M30.408,30.717l8.43-19.227c2.314,2.779,3.934,2.216,7.29,4.66
	c5.791,5.371-3.396,9.913-4.674,3.878l-0.791,0.209c1.745,6.624,11.365,3.44,8.239-3.469c-2.073-4.363-6.028-4.704-7.288-9.172
	c-0.083-0.515-0.18-0.938-0.285-1.284l0.007,0.001c-0.34-1.469-1.335-1.975-1.335-1.975L30.293,26.09
	c-1.361-2.686-4.895-4.196-8.515-3.448c-4.119,0.851-6.792,4.299-5.971,7.701c0.822,3.402,4.828,5.472,8.948,4.621
	c2.684-0.555,4.753-2.213,5.643-4.242L30.408,30.717L30.408,30.717z"/>
</svg>
