<?xml version="1.0" encoding="utf-8"?>
<!-- Generator: Adobe Illustrator 16.0.0, SVG Export Plug-In . SVG Version: 6.00 Build 0)  -->
<!DOCTYPE svg PUBLIC "-//W3C//DTD SVG 1.1//EN" "http://www.w3.org/Graphics/SVG/1.1/DTD/svg11.dtd">
<svg version="1.1" id="圖層_1" xmlns="http://www.w3.org/2000/svg" xmlns:xlink="http://www.w3.org/1999/xlink" x="0px" y="0px"
	 width="56.693px" height="56.693px" viewBox="0 0 56.693 56.693" enable-background="new 0 0 56.693 56.693" xml:space="preserve">
<g>
	<path fill="#717372" d="M51.686,26.692h-2.793v-5.017c0-1.207-0.98-2.188-2.185-2.188h-2.617v-1.93l-0.395-0.396v-0.004
		l-5.836-5.836L31.623,5.09H12.091v8.802h-4.21c-1.208,0-2.188,0.979-2.188,2.184v34.95h0.004c-0.004,0.453,0.137,0.894,0.418,1.261
		c0.39,0.512,0.984,0.805,1.629,0.805h35.81c0.926,0,1.737-0.625,1.961-1.448l8.18-22.431v-0.145
		C53.693,27.692,52.85,26.692,51.686,26.692L51.686,26.692z M46.709,21.09c0.32,0,0.586,0.263,0.586,0.586v5.017h-3.203V21.09
		H46.709z M32.092,7.821l9.271,9.27h-9.271V7.821z M13.693,6.692h16.802v12h11.999v8H15.877c-0.113,0-0.227,0.008-0.336,0.026
		c-0.782,0.13-1.43,0.695-1.621,1.423l-0.227,0.616V6.692z M7.295,16.075c0-0.32,0.262-0.586,0.586-0.586h4.21v17.629L7.295,46.211
		V16.075z M43.99,51.157c-0.055,0.195-0.234,0.332-0.438,0.332H7.744c-0.192,0-0.309-0.109-0.355-0.175
		c-0.051-0.067-0.13-0.203-0.102-0.328l4.804-13.177v0.005l3.329-9.126l0.023-0.063c0.051-0.199,0.229-0.336,0.434-0.336h35.809
		c0.305,0,0.383,0.438,0.401,0.656L43.99,51.157z"/>
	<path fill="#717372" d="M18.494,18.692h8c0.441,0,0.801-0.359,0.801-0.801c0-0.442-0.359-0.802-0.801-0.802h-8
		c-0.442,0-0.801,0.359-0.801,0.802C17.693,18.333,18.052,18.692,18.494,18.692L18.494,18.692z"/>
	<path fill="#717372" d="M18.494,13.09h8c0.441,0,0.801-0.358,0.801-0.801c0-0.441-0.359-0.801-0.801-0.801h-8
		c-0.442,0-0.801,0.359-0.801,0.801C17.693,12.731,18.052,13.09,18.494,13.09L18.494,13.09z"/>
	<path fill="#717372" d="M18.494,24.29h19.199c0.44,0,0.801-0.354,0.801-0.801c0-0.441-0.359-0.797-0.801-0.797H18.494
		c-0.442,0-0.801,0.354-0.801,0.797C17.693,23.934,18.052,24.29,18.494,24.29L18.494,24.29z"/>
</g>
</svg>
