<?xml version="1.0" encoding="utf-8"?>
<!-- Generator: Adobe Illustrator 16.0.0, SVG Export Plug-In . SVG Version: 6.00 Build 0)  -->
<!DOCTYPE svg PUBLIC "-//W3C//DTD SVG 1.1//EN" "http://www.w3.org/Graphics/SVG/1.1/DTD/svg11.dtd">
<svg version="1.1" id="圖層_1" xmlns="http://www.w3.org/2000/svg" xmlns:xlink="http://www.w3.org/1999/xlink" x="0px" y="0px"
	 width="56.693px" height="56.693px" viewBox="0 0 56.693 56.693" enable-background="new 0 0 56.693 56.693" xml:space="preserve">
<g>
	<path fill="#FFFFFF" d="M48.622,49.094l-10.19-10.189c2.733-3.142,4.389-7.242,4.389-11.723c0-9.863-8.023-17.877-17.878-17.877
		c-9.864,0-17.877,8.023-17.877,17.877c0,9.854,8.023,17.877,17.877,17.877c4.481,0,8.581-1.654,11.724-4.388l10.188,10.189
		c0.242,0.241,0.567,0.371,0.884,0.371c0.315,0,0.642-0.12,0.884-0.371C49.104,50.378,49.104,49.579,48.622,49.094z M9.566,27.182
		c0-8.478,6.898-15.367,15.367-15.367c8.479,0,15.368,6.898,15.368,15.367s-6.889,15.376-15.368,15.376
		C16.464,42.558,9.566,35.661,9.566,27.182z"/>
</g>
</svg>
