<?xml version="1.0" encoding="utf-8"?>
<!-- Generator: Adobe Illustrator 16.0.0, SVG Export Plug-In . SVG Version: 6.00 Build 0)  -->
<!DOCTYPE svg PUBLIC "-//W3C//DTD SVG 1.1//EN" "http://www.w3.org/Graphics/SVG/1.1/DTD/svg11.dtd">
<svg version="1.1" id="圖層_1" xmlns="http://www.w3.org/2000/svg" xmlns:xlink="http://www.w3.org/1999/xlink" x="0px" y="0px"
	 width="56.693px" height="56.693px" viewBox="0 0 56.693 56.693" enable-background="new 0 0 56.693 56.693" xml:space="preserve">
<g>
	<path fill="#717372" d="M50.433,14.189H27.261v-3.984c0-1.328-1.082-2.414-2.414-2.414H7.261c-1.332,0-2.414,1.082-2.414,2.414
		v37.57c0,1.332,1.082,2.414,2.414,2.414h43.172c1.328,0,2.414-1.082,2.414-2.414V16.607C52.847,15.275,51.765,14.189,50.433,14.189
		L50.433,14.189z M51.245,47.776c0,0.449-0.363,0.815-0.813,0.815H7.261c-0.449,0-0.813-0.366-0.813-0.815V22.991h44.796V47.776z
		 M6.449,21.394V10.206c0-0.449,0.363-0.812,0.813-0.812h17.586c0.448,0,0.815,0.362,0.815,0.812v5.586h24.771
		c0.448,0,0.813,0.367,0.813,0.816v4.786H6.449z"/>
</g>
</svg>
