<?xml version="1.0" encoding="utf-8"?>
<!-- Generator: Adobe Illustrator 16.0.0, SVG Export Plug-In . SVG Version: 6.00 Build 0)  -->
<!DOCTYPE svg PUBLIC "-//W3C//DTD SVG 1.1//EN" "http://www.w3.org/Graphics/SVG/1.1/DTD/svg11.dtd">
<svg version="1.1" id="圖層_1" xmlns="http://www.w3.org/2000/svg" xmlns:xlink="http://www.w3.org/1999/xlink" x="0px" y="0px"
	 width="56.693px" height="56.693px" viewBox="0 0 56.693 56.693" enable-background="new 0 0 56.693 56.693" xml:space="preserve">
<g>
	<path fill="#F14351" d="M23.15,50.545H9.595V7.485H23.15c0.447,0,0.798-0.352,0.798-0.797c0-0.446-0.351-0.798-0.798-0.798H8.797
		C8.351,5.89,8,6.241,8,6.688v44.654c0,0.447,0.352,0.798,0.797,0.798H23.15c0.447,0,0.798-0.352,0.798-0.798
		C23.948,50.897,23.581,50.545,23.15,50.545L23.15,50.545z"/>
	<path fill="#F14351" d="M47.807,29.318c0.016-0.032,0.016-0.048,0.03-0.08c0-0.016,0.017-0.048,0.017-0.064
		c0.016-0.048,0.016-0.096,0.016-0.158c0-0.049,0-0.112-0.016-0.16c0-0.017-0.017-0.048-0.017-0.064c0-0.032-0.016-0.048-0.03-0.08
		c-0.017-0.031-0.032-0.048-0.049-0.08c-0.016-0.016-0.016-0.047-0.031-0.063c-0.032-0.048-0.063-0.08-0.097-0.127l-7.974-7.976
		c-0.319-0.317-0.813-0.317-1.132,0c-0.319,0.319-0.319,0.813,0,1.134l6.619,6.617H16.771c-0.447,0-0.797,0.352-0.797,0.799
		c0,0.445,0.351,0.797,0.797,0.797h28.372l-6.619,6.618c-0.319,0.318-0.319,0.813,0,1.132c0.16,0.159,0.367,0.238,0.559,0.238
		s0.415-0.079,0.559-0.238l7.974-7.975c0.032-0.031,0.064-0.08,0.095-0.127c0.017-0.016,0.017-0.031,0.032-0.063
		C47.774,29.366,47.791,29.35,47.807,29.318L47.807,29.318z"/>
</g>
</svg>
